<svg data-v-0dd9719b="" version="1.0" xmlns="http://www.w3.org/2000/svg" xmlns:xlink="http://www.w3.org/1999/xlink"
  viewBox="0 0 206 54">
  <g data-v-0dd9719b="" fill="#000000">
    <g class="">
      <g transform="translate(0, 0)">
        <g>
          <g class="imagesvg">
            <g>
              <rect fill="#000000" fill-opacity="0" stroke-width="2" x="0" y="0" width="40.51096705655997"
                height="52.71433579253087" class="image-rect"></rect> <svg x="0" y="0" width="40.51096705655997"
                height="52.71433579253087" filtersec="colorsb7542221273" class="image-svg-svg primary"
                style="overflow: visible;"><svg xmlns="http://www.w3.org/2000/svg"
                  viewBox="0 0 41.58333206176758 54.11000061035156">
                  <title>p18</title>
                  <g data-name="图层 2">
                    <g data-name="Layer 1">
                      <path
                        d="M33.56 6a6.78 6.78 0 0 0-.71-.64l-18.1 13.5-.45 3.38 20.17-15A7.31 7.31 0 0 0 33.56 6zM35.47 9.55L13.86 25.62 13.41 29l22.52-16.73a14.8 14.8 0 0 0-.46-2.72zM22.82 3.45l-2.07.16q-1.05.09-2.11.21h-.08l-2 1.5-.45 3.38 7.09-5.28zM34.72 22.32l-12.34 9.17a15.87 15.87 0 0 0 7-2.18l1.68-1.25a11.44 11.44 0 0 0 .95-1 14.45 14.45 0 0 0 2.71-4.74zM30.06 4a13.68 13.68 0 0 0-2.81-.53l-11.6 8.63-.45 3.38L30.45 4.14zM36 15.3L14.55 31.21c.69.09 1.4.17 2.15.23l1.51.1 17.43-13A29.93 29.93 0 0 0 36 15.3z"
                        fill="#fff"></path>
                      <path
                        d="M16.7 4.08l-.16 1.25 2-1.5c-.66.07-1.28.17-1.84.25zM24.68 3.38H23.2l-7.11 5.33-.45 3.38 11.6-8.63a22.22 22.22 0 0 0-2.56-.08zM30.45 4.14L15.2 15.47l-.45 3.38 18.1-13.44a8.5 8.5 0 0 0-2.4-1.27zM35.46 9.47a8.55 8.55 0 0 0-1-2.23l-20.17 15-.45 3.38L35.47 9.55zM36 14.17c0-.66 0-1.29-.07-1.9L13.41 29l-.26 2c.44.08.92.14 1.4.21L36 15.3v-1.13zM35.64 18.59l-17.43 13c.71 0 1.4.06 2 .06s1.44 0 2.13-.11l12.34-9.17a21.32 21.32 0 0 0 .96-3.78z"
                        fill="#ed1c24"></path>
                      <path d="M31.1 28.07l-1.68 1.25a11.66 11.66 0 0 0 1.68-1.25z" fill="#000000"></path>
                      <path
                        d="M37.32 3.32A15.15 15.15 0 0 0 30.5.43a25 25 0 0 0-2.8-.35C27 0 26.28 0 25.52 0s-1.28 0-1.91.06h-.76q-1.3.09-2.6.21l-1.19.1-1.43.14Q16.31.6 14.91.6h-8L8.69 2l2 1.58.68.54-.28 2.22-.42 3.36-.42 3.36-.42 3.36-.43 3.36-.4 3.37-.42 3.36-.27 2.2L5.52 50.8l-5.27.88L0 54.11h17.05l.25-2.46-6.47-.84 1.93-16.14 1.14.08 1.76.11q1 .06 2.07.09T20 35c.64 0 1.27 0 1.89-.08a24.72 24.72 0 0 0 5.47-1c.33-.1.66-.19 1-.3a20 20 0 0 0 6.93-4.1 18.44 18.44 0 0 0 3.17-3.84A20.9 20.9 0 0 0 40 22.8a18.26 18.26 0 0 0 .64-1.8 20.72 20.72 0 0 0 .77-3.62c.08-.66.13-1.34.16-2s0-1.11 0-1.68q-.09-7.05-4.25-10.38zM36 15.3a29.93 29.93 0 0 1-.31 3.28 21.32 21.32 0 0 1-.92 3.73 14.45 14.45 0 0 1-2.77 4.8 11.44 11.44 0 0 1-.95 1 11.66 11.66 0 0 1-1.68 1.25 15.87 15.87 0 0 1-7 2.18c-.69.06-1.39.1-2.13.11s-1.33 0-2-.06l-1.51-.1c-.76-.06-1.47-.14-2.15-.23-.48-.06-1-.13-1.4-.21l.26-2 .45-3.38.45-3.38.45-3.38.45-3.38.45-3.38.45-3.38.45-3.38.16-1.25c.56-.09 1.18-.17 1.85-.25h.08q1.05-.12 2.11-.21l2.07-.16H24.72a22.22 22.22 0 0 1 2.57.09 13.68 13.68 0 0 1 2.77.39l.39.15a8.5 8.5 0 0 1 2.4 1.27 6.78 6.78 0 0 1 .71.64 7.31 7.31 0 0 1 .92 1.2 8.55 8.55 0 0 1 1 2.23v.08a14.8 14.8 0 0 1 .46 2.71c0 .61.08 1.24.07 1.9-.01.38-.01.74-.01 1.12z"
                        fill="#1a1a1a"></path>
                    </g>
                  </g>
                </svg></svg>
              <!---->
            </g>
          </g>
        </g>
      </g>
      <g transform="translate(44, 0.3560662713687144)">
        <g data-gra="path-name" fill="#000000" transform="scale(1)">
          <path
            d="M16.66-29.50L16.66-36.73C13.30-36.73 11.22-34.94 10.41-32.27L10.41-36.29L1.74-36.29L1.74 0L10.41 0L10.41-27.76C10.41-28.95 15.26-29.50 16.66-29.50Z"
            transform="translate(-1.7350592123381987, 44.76452767832553)"></path>
        </g>
      </g>
      <g transform="translate(62, 0.3560662713687144)">
        <g data-gra="path-name" fill="#000000" transform="scale(1)">
          <path d="M1.69-38.72L10.36-38.72L10.36-44.76L1.69-44.76ZM1.69 0L10.36 0L10.36-36.29L1.69-36.29Z"
            transform="translate(-1.6854860919856787, 44.76452767832553)"></path>
        </g>
      </g>
      <g transform="translate(74, 0.3560662713687144)">
        <g data-gra="path-name" fill="#000000" transform="scale(1)">
          <path
            d="M12.59-29.99C14.00-29.99 14.52-28.56 14.52-27.12L14.52 0L23.05 0L23.05-28.01C23.05-33.27 20.99-36.68 15.86-36.68C12.66-36.68 11.07-34.37 10.41-31.68L10.41-36.29L1.74-36.29L1.74 0L10.41 0L10.41-25.53C10.41-27.75 10.57-29.99 12.59-29.99Z"
            transform="translate(-1.7350592123381987, 44.76452767832553)"></path>
        </g>
      </g>
      <g transform="translate(99, 0.3560662713687144)">
        <g data-gra="path-name" fill="#000000" transform="scale(1)">
          <path
            d="M9.22 0.40C10.73 0.40 13.02 0.05 14.13-0.25L14.13-6.20C13.76-6.20 13.06-6.10 12.59-6.10C11.63-6.10 11.65-6.87 11.65-7.93L11.65-28.31L14.13-28.31L14.13-34.90L11.65-34.90L11.65-42.58L3.22-42.58L3.22-34.90L0.79-34.90L0.79-28.31L3.22-28.31L3.22-5.65C3.22-1.29 4.76 0.40 9.22 0.40Z"
            transform="translate(-0.7931699256403194, 44.76452767832553)"></path>
        </g>
      </g>
      <g transform="translate(116, 0.3560662713687144)">
        <g data-gra="path-name" fill="#000000" transform="scale(1)">
          <path
            d="M13.09 0L21.76 0L21.76-6.74L24.04-6.74L24.04-13.83L21.76-13.83L21.76-42.63L8.48-42.63L0.45-13.38L0.45-6.74L13.09-6.74ZM13.09-13.83L8.03-13.83L13.09-35.30Z"
            transform="translate(-0.4461580831726797, 44.76452767832553)"></path>
        </g>
      </g>
      <g transform="translate(143, 0.3560662713687144)">
        <g data-gra="path-name" fill="#000000" transform="scale(1)">
          <path
            d="M12.64-30.09C14.20-30.09 14.33-28.37 14.33-26.67L14.33 0L23.00 0L23.00-26.08C23.00-28.00 23.51-30.19 25.33-30.19C26.52-30.19 27.12-29.02 27.12-26.67L27.12 0L35.84 0L35.94-26.52C35.94-32.72 34.36-36.68 28.36-36.68C24.90-36.68 23.55-35.39 22.21-33.07C21.38-35.22 19.24-36.68 16.31-36.68C12.66-36.68 10.97-35.06 10.21-32.07L10.21-36.29L1.74-36.29L1.74 0L10.21 0L10.21-25.63C10.21-27.71 10.68-30.09 12.64-30.09Z"
            transform="translate(-1.7350592123381987, 44.76452767832553)"></path>
        </g>
      </g>
      <g transform="translate(181, 0.3560662713687144)">
        <g data-gra="path-name" fill="#000000" transform="scale(1)">
          <path
            d="M11.90 0.40C20.09 0.40 22.80-3.66 22.80-11.95L22.80-14.03L14.18-14.03L14.18-10.51C14.18-8.31 14.29-6.30 12.19-6.30C10.27-6.30 10.11-8.21 10.11-10.31L10.11-17.35L22.70-17.35C22.77-19.00 22.80-21.15 22.80-23.80L22.80-26.42C22.80-33.26 19.32-36.68 12.34-36.68C5.56-36.68 1.44-33.17 1.44-26.42L1.44-11.85C1.44-3.99 4.18 0.40 11.90 0.40ZM14.18-21.66L10.06-21.66L10.06-26.32C10.06-28.93 10.79-30.24 12.24-30.24C13.53-30.24 14.18-28.93 14.18-26.32Z"
            transform="translate(-1.437620490223079, 44.76452767832553)"></path>
        </g>
      </g>
    </g>
    <!---->
  </g>
  <defs v-gra="od"></defs>
</svg>